<svg xmlns="http://www.w3.org/2000/svg" width="205" height="127" fill="none"><circle cx="5.391" cy="122.484" r="4.5" fill="#D9D9D9"/><circle cx="44.391" cy="122.484" r="4.5" fill="#D9D9D9"/><circle cx="83.391" cy="122.484" r="4.5" fill="#D9D9D9"/><circle cx="122.391" cy="122.484" r="4.5" fill="#D9D9D9"/><circle cx="161.391" cy="122.484" r="4.5" fill="#D9D9D9"/><circle cx="200.391" cy="122.484" r="4.5" fill="#D9D9D9"/><circle cx="5.391" cy="83.484" r="4.5" fill="#D9D9D9"/><circle cx="44.391" cy="83.484" r="4.5" fill="#D9D9D9"/><circle cx="83.391" cy="83.484" r="4.5" fill="#D9D9D9"/><circle cx="122.391" cy="83.484" r="4.5" fill="#D9D9D9"/><circle cx="161.391" cy="83.484" r="4.5" fill="#D9D9D9"/><circle cx="200.391" cy="83.484" r="4.5" fill="#D9D9D9"/><circle cx="5.391" cy="44.484" r="4.5" fill="#D9D9D9"/><circle cx="44.391" cy="44.484" r="4.5" fill="#D9D9D9"/><circle cx="83.391" cy="44.484" r="4.5" fill="#D9D9D9"/><circle cx="122.391" cy="44.484" r="4.5" fill="#D9D9D9"/><circle cx="161.391" cy="44.484" r="4.5" fill="#D9D9D9"/><circle cx="200.391" cy="44.484" r="4.5" fill="#D9D9D9"/><circle cx="5.391" cy="5.484" r="4.5" fill="#D9D9D9"/><circle cx="44.391" cy="5.484" r="4.5" fill="#D9D9D9"/><circle cx="83.391" cy="5.484" r="4.5" fill="#D9D9D9"/><circle cx="122.391" cy="5.484" r="4.5" fill="#D9D9D9"/><circle cx="161.391" cy="5.484" r="4.5" fill="#D9D9D9"/><circle cx="200.391" cy="5.484" r="4.5" fill="#D9D9D9"/></svg>