<svg xmlns="http://www.w3.org/2000/svg" width="219" height="125" fill="none"><path fill="#00477C" d="m210.552 19.902-18.625 5.52c-.878.26-.504 1.63.383 1.36l18.625-5.52c.868-.25.495-1.62-.383-1.36"/><path fill="#00477C" d="M191.755 25.262c-14.74-4.96-29.491-9.92-44.231-14.88-.787-.26-1.221.88-.545 1.29 11.784 7.12 23.559 14.25 35.343 21.37.787.48 1.503-.75.716-1.22-11.784-7.12-23.558-14.25-35.343-21.37l-.545 1.29c14.741 4.96 29.492 9.92 44.232 14.88.868.3 1.241-1.07.373-1.36m19.675-7.32a2122 2122 0 0 0-78.314-14.52c-.898-.15-1.281 1.21-.383 1.36 26.192 4.35 52.303 9.19 78.313 14.52.908.18 1.292-1.18.384-1.36"/><path fill="#00477C" d="M182.766 32.352a338 338 0 0 0-21.521 2.07c-.898.12-.908 1.53 0 1.41 7.154-.92 14.317-1.61 21.521-2.07.908-.06.918-1.47 0-1.41"/><path fill="#00477C" d="M130.836 4.892a418 418 0 0 0 32.427 32.42c.676.61 1.695-.39 1.009-1a415 415 0 0 1-32.427-32.42c-.605-.68-1.614.32-1.009 1m62.07 22.4c.02 6.57.393 13.11 1.15 19.64.101.89 1.533.9 1.422 0-.746-6.53-1.13-13.07-1.15-19.64 0-.91-1.422-.91-1.422 0"/><path fill="#00477C" d="M182.978 32.792c3.491 4.95 6.971 9.91 10.462 14.86.525.74 1.756.04 1.231-.71-3.491-4.95-6.971-9.91-10.462-14.86-.515-.74-1.756-.04-1.231.71"/><path fill="#00477C" d="M194.136 46.772a290 290 0 0 0-19.411-13.67c-.777-.5-1.483.73-.717 1.22a291 291 0 0 1 19.13 13.45c.716.55 1.725-.44.998-1"/><path stroke="#00477C" stroke-dasharray="9.74 9.74" stroke-linecap="round" stroke-miterlimit="10" stroke-width="1.5" d="M1.915 123.362c-1.897-16.11 5.57-32.35 17.06-43.89 11.493-11.54 26.637-18.88 42.134-24.06 5.61-1.87 11.36-3.52 16.466-6.5 9.463-5.52 15.81-15.18 19.835-25.3 3.037-7.64 3.693-18.55-3.874-21.89-5.287-2.33-11.794 1.15-14.357 6.29-2.553 5.14-1.978 11.29-.394 16.8 4.44 15.45 16.174 28.12 29.956 36.56 13.792 8.44 29.582 13.09 45.382 16.69 10.654 2.43 21.57 4.44 32.457 3.49 10.886-.95 21.863-5.17 28.956-13.42 1.383-1.61 2.674-3.61 2.28-5.69-.312-1.68-1.634-2.96-2.895-4.12l-13.722-12.7"/><path fill="#00477C" d="M161.306 15.552c1.069 2.02 2.129 4.03 3.198 6.05.424.81 1.655.09 1.231-.71-1.069-2.02-2.129-4.03-3.198-6.05-.424-.81-1.655-.09-1.231.71m5.408.48c1.463 3.32 2.926 6.63 4.389 9.95.363.83 1.594.11 1.231-.71-1.463-3.32-2.926-6.63-4.389-9.95-.364-.84-1.594-.12-1.231.71m8.354 4.83c1.382 2.99 2.754 5.99 4.136 8.98.384.83 1.615.11 1.231-.71-1.382-2.99-2.754-5.99-4.136-8.98-.384-.83-1.615-.11-1.231.71m6.508 2.51a297 297 0 0 0 4.832 13.35c.323.84 1.705.48 1.372-.38a297 297 0 0 1-4.832-13.35c-.283-.86-1.665-.49-1.372.38m5.296 3.66c1.393 4.2 2.775 8.4 4.167 12.6.283.86 1.665.49 1.372-.38-1.392-4.2-2.774-8.4-4.166-12.6-.283-.85-1.665-.48-1.373.38m4.934.47a32 32 0 0 1 1.221 6.6c.071.9 1.493.91 1.423 0a34 34 0 0 0-1.272-6.97c-.252-.87-1.634-.5-1.372.37"/></svg>