<svg xmlns="http://www.w3.org/2000/svg" width="334" height="224" fill="none"><path fill="#002C44" d="m277.49 12.464-9.41 25.768 13.71-15.149 51.41 1.47z"/><path fill="#FF7B3A" d="M268.37.74s10.44 9.13 9.02 12.028l55.32 11.49c-.01 0-26.62-18.907-64.34-23.518"/><path fill="#FBC949" d="M267.66 38.729c-.43.82 20.97-2.21 20.97-2.21l-7.34-13.74s-9.84 8.765-13.63 15.95"/><path fill="#F75E28" d="M281.29 22.78s10.06 16.678 4.43 26.365l47.87-24.673s-47.21-2.675-52.3-1.693"/><path stroke="#FBCD5F" stroke-dasharray="8 8" stroke-linecap="round" stroke-linejoin="round" stroke-miterlimit="10" stroke-width="3" d="M2 167.438c.82 27.694 24.39 52.945 51.67 54.83s54.21-20.307 57.48-47.818c.81-6.839.21-14.176-3.53-19.931s-11.22-9.363-17.61-6.982c-7.2 2.675-10.36 12.099-7.95 19.476 2.42 7.377 9.07 12.646 16.22 15.463 15.15 5.968 33.63 1.965 45.04-9.769 12.84-13.213 15.71-32.952 20.56-50.827 10.63-39.235 28.57-100.002 87.1-94.612"/></svg>