<svg xmlns="http://www.w3.org/2000/svg" width="19" height="20" fill="none"><path fill="#495340" d="M17.937 8.841a1.4 1.4 0 0 0-1.19-.273 2.122 2.122 0 0 1-2.59-2.047 1.41 1.41 0 0 0-1.404-1.404 2.122 2.122 0 0 1-2.047-2.59A1.417 1.417 0 0 0 9.272.801a9.2 9.2 0 1 0 9.2 9.143 1.41 1.41 0 0 0-.535-1.103M4.632 7.481a1.061 1.061 0 1 1 1.5 1.5 1.061 1.061 0 0 1-1.5-1.5m2.208 6.454a1.061 1.061 0 1 1-1.5-1.501 1.061 1.061 0 0 1 1.5 1.5m2.391-3.538a1.061 1.061 0 1 1 1.5-1.501 1.061 1.061 0 0 1-1.5 1.5m3.27 4.246a1.06 1.06 0 1 1-1.5-1.5 1.06 1.06 0 0 1 1.5 1.5"/></svg>