<svg width="19" height="19" viewBox="0 0 19 19" fill="none" xmlns="http://www.w3.org/2000/svg">
<path d="M17.8628 8.03999C17.6976 7.90802 17.5047 7.81496 17.2986 7.76772C17.0925 7.72048 16.8783 7.72027 16.6721 7.76711C16.3634 7.83683 16.0431 7.83663 15.7345 7.76653C15.4258 7.69643 15.1368 7.5582 14.8885 7.36197C14.6403 7.16574 14.439 6.91647 14.2995 6.6324C14.16 6.34834 14.0858 6.03667 14.0823 5.72023C14.0806 5.34835 13.9322 4.99219 13.6692 4.72922C13.4063 4.46624 13.0501 4.31774 12.6783 4.31602C12.3618 4.31257 12.0501 4.23838 11.766 4.09889C11.482 3.95941 11.2327 3.75816 11.0364 3.50987C10.8402 3.26158 10.702 2.97255 10.6319 2.66393C10.5618 2.35532 10.5616 2.03493 10.6313 1.72624C10.6776 1.51952 10.677 1.30506 10.6294 1.09863C10.5819 0.892199 10.4886 0.699064 10.3566 0.533446C10.2245 0.367828 10.0569 0.233944 9.86626 0.141653C9.67559 0.0493626 9.46664 0.00101562 9.25481 0.000172424C9.23559 8.39703e-05 9.21676 0 9.19758 0C7.3758 0.000325979 5.59513 0.541561 4.08132 1.55509C2.5675 2.56863 1.38871 4.00881 0.694363 5.69309C2.03299e-05 7.37736 -0.178601 9.22987 0.181144 11.0158C0.540888 12.8017 1.4228 14.4406 2.71507 15.7247C4.00735 17.0088 5.6518 17.8803 7.43995 18.2287C9.22811 18.5771 11.0795 18.3867 12.7593 17.6817C14.4391 16.9766 15.8718 15.7887 16.8757 14.2685C17.8796 12.7483 18.4095 10.9642 18.3983 9.14247V9.14238C18.3975 8.93022 18.349 8.72095 18.2563 8.53011C18.1636 8.33927 18.0291 8.17175 17.8628 8.03999ZM4.55698 6.67923C4.70543 6.53078 4.89456 6.42969 5.10047 6.38873C5.30637 6.34778 5.51979 6.3688 5.71375 6.44914C5.90771 6.52947 6.07348 6.66552 6.19012 6.84008C6.30675 7.01464 6.369 7.21986 6.369 7.42979C6.369 7.63973 6.30675 7.84495 6.19012 8.01951C6.07348 8.19407 5.90771 8.33011 5.71375 8.41045C5.51979 8.49079 5.30637 8.51181 5.10047 8.47086C4.89456 8.4299 4.70543 8.32881 4.55698 8.18036C4.35793 7.98129 4.24611 7.71131 4.24611 7.42979C4.24611 7.14828 4.35793 6.8783 4.55698 6.67923V6.67923ZM6.76574 13.1338C6.6173 13.2822 6.42816 13.3833 6.22226 13.4243C6.01636 13.4652 5.80293 13.4442 5.60898 13.3639C5.41502 13.2835 5.24924 13.1475 5.13261 12.9729C5.01598 12.7984 4.95372 12.5932 4.95372 12.3832C4.95372 12.1733 5.01598 11.9681 5.13261 11.7935C5.24924 11.619 5.41502 11.4829 5.60898 11.4026C5.80293 11.3222 6.01636 11.3012 6.22226 11.3422C6.42816 11.3831 6.6173 11.4842 6.76574 11.6327C6.96479 11.8317 7.07662 12.1017 7.07662 12.3832C7.07662 12.6647 6.96479 12.9347 6.76574 13.1338V13.1338ZM9.15659 9.59562C9.00815 9.44718 8.90705 9.25804 8.8661 9.05214C8.82514 8.84624 8.84616 8.63281 8.9265 8.43886C9.00684 8.2449 9.14289 8.07912 9.31744 7.96249C9.492 7.84586 9.69722 7.7836 9.90716 7.7836C10.1171 7.7836 10.3223 7.84586 10.4969 7.96249C10.6714 8.07912 10.8075 8.2449 10.8878 8.43886C10.9682 8.63281 10.9892 8.84624 10.9482 9.05214C10.9073 9.25804 10.8062 9.44718 10.6577 9.59562C10.4587 9.79468 10.1887 9.90651 9.90716 9.90651C9.62564 9.90651 9.35566 9.79468 9.15659 9.59562V9.59562ZM12.4268 13.8414C12.2784 13.9899 12.0892 14.091 11.8833 14.1319C11.6774 14.1729 11.464 14.1519 11.27 14.0715C11.0761 13.9912 10.9103 13.8551 10.7937 13.6806C10.677 13.506 10.6148 13.3008 10.6148 13.0909C10.6148 12.8809 10.677 12.6757 10.7937 12.5011C10.9103 12.3266 11.0761 12.1905 11.27 12.1102C11.464 12.0299 11.6774 12.0088 11.8833 12.0498C12.0892 12.0907 12.2784 12.1918 12.4268 12.3403C12.6259 12.5394 12.7377 12.8093 12.7377 13.0909C12.7377 13.3724 12.6259 13.6424 12.4268 13.8414V13.8414Z" fill="#326A00"/>
</svg>
