<?xml version="1.0" encoding="UTF-8"?>
<svg width="19" height="19" fill="none" version="1.1" viewBox="0 0 19 19" xmlns="http://www.w3.org/2000/svg">
 <path d="m8.909 0.46774c0.14717-0.62366 1.0348-0.62366 1.1819 1.05e-6l1.5254 6.4644c0.05283 0.22388 0.22762 0.39868 0.45156 0.45151l6.4643 1.5254c0.62372 0.14717 0.62372 1.0348 0 1.1819l-6.4643 1.5254c-0.22394 0.05283-0.39873 0.22762-0.45156 0.45156l-1.5254 6.4643c-0.14716 0.62372-1.0347 0.62372-1.1819 0l-1.5254-6.4643c-0.052828-0.22394-0.22763-0.39873-0.45151-0.45156l-6.4644-1.5254c-0.62366-0.14716-0.62366-1.0347 1.05e-6 -1.1819l6.4644-1.5254c0.22388-0.052828 0.39868-0.22763 0.45151-0.45151z" fill="#fff" stroke-width="1.0523"/>
</svg>
